<svg xmlns="http://www.w3.org/2000/svg" viewBox="0 0 127.17 52.83"><defs><style>.cls-1{fill:#ec5e33;}</style></defs><g id="Layer_2" data-name="Layer 2"><g id="Layer_3" data-name="Layer 3"><path class="cls-1" d="M41.32,42.15A10.68,10.68,0,1,0,30.65,52.83,10.69,10.69,0,0,0,41.32,42.15Zm-18.14,0a7.47,7.47,0,1,1,7.47,7.46A7.48,7.48,0,0,1,23.18,42.15Z"/><circle class="cls-1" cx="30.65" cy="42.15" r="3.87"/><path class="cls-1" d="M110.75,42.15a10.68,10.68,0,1,0-10.68,10.68A10.69,10.69,0,0,0,110.75,42.15Zm-18.14,0a7.47,7.47,0,1,1,7.46,7.46A7.47,7.47,0,0,1,92.61,42.15Z"/><circle class="cls-1" cx="100.07" cy="42.15" r="3.87"/><rect class="cls-1" x="40.82" y="18.26" width="6.54" height="2.07"/><rect class="cls-1" x="65.61" y="18.26" width="6.54" height="2.07"/><path class="cls-1" d="M120.62,16.75a1.68,1.68,0,0,0-.93-.41L89,13.45,76.62.5A1.63,1.63,0,0,0,75.45,0H41.16a1.56,1.56,0,0,0-1,.35L21.72,15H6.53a1.62,1.62,0,0,0-1.4.81L.21,24.41a1.64,1.64,0,0,0-.16,1.21L3.5,38.55a1.61,1.61,0,0,0,1.55,1.19H17a1.61,1.61,0,0,0,1.54-1.15,12.67,12.67,0,0,1,24.83,3.56,12.19,12.19,0,0,1-.08,1.34,1.62,1.62,0,0,0,.41,1.24,1.59,1.59,0,0,0,1.19.53h41a1.61,1.61,0,0,0,1.61-1.6,2.64,2.64,0,0,0,0-.29c0-.41-.06-.82-.06-1.22a12.66,12.66,0,0,1,24.84-3.49,1.62,1.62,0,0,0,1.54,1.16h7.83a1.61,1.61,0,0,0,1.56-1.2l3.93-14.82a1.6,1.6,0,0,0-.47-1.6ZM7.46,18.19H22.28a1.56,1.56,0,0,0,1-.35L41.72,3.21H74.77L87.09,16.1a1.59,1.59,0,0,0,1,.49l30.76,2.9,3.27,3H5ZM120.39,36.6H115a15.88,15.88,0,0,0-30.76,5.45H46.53A15.88,15.88,0,0,0,15.8,36.53H6.29L3.39,25.66h119.9Z"/><polygon class="cls-1" points="59.44 5.68 59.44 15.63 81.66 15.63 73.23 5.68 59.44 5.68"/><polygon class="cls-1" points="31.86 15.63 56.53 15.63 56.53 5.68 42.97 5.68 31.86 15.63"/></g></g></svg>