<svg xmlns="http://www.w3.org/2000/svg" viewBox="0 0 111.69 55.46"><defs><style>.cls-1{fill:#ec5e33;}</style></defs><g id="Layer_2" data-name="Layer 2"><g id="Layer_3" data-name="Layer 3"><rect class="cls-1" x="61.75" y="22.64" width="4.8" height="2.07"/><rect class="cls-1" x="37.62" y="22.41" width="4.8" height="2.07"/><path class="cls-1" d="M27.43,33.76A10.68,10.68,0,1,0,38.11,44.44,10.69,10.69,0,0,0,27.43,33.76Zm0,18.14a7.46,7.46,0,1,1,7.46-7.46A7.47,7.47,0,0,1,27.43,51.9Z"/><path class="cls-1" d="M27.43,40.57a3.87,3.87,0,1,0,3.87,3.87A3.87,3.87,0,0,0,27.43,40.57Z"/><path class="cls-1" d="M2.17,38.27A1.62,1.62,0,0,0,3.49,40.1l10,1.7a1.61,1.61,0,0,0,1.8-1.11A12.67,12.67,0,0,1,40.1,44.44a1.61,1.61,0,0,0,1.61,1.61h30a1.61,1.61,0,0,0,1.61-1.57A12.69,12.69,0,0,1,86,32.11,12.74,12.74,0,0,1,97.8,40.27a1.62,1.62,0,0,0,1.58,1l4.7-.22a1.56,1.56,0,0,0,1.19-.63l6.09-7.92a1.57,1.57,0,0,0,.32-1.11l-1-12a1.62,1.62,0,0,0-1.49-1.47L80.46,15.8,72.67.92A1.61,1.61,0,0,0,71.25.06L9.33,0h0A1.59,1.59,0,0,0,7.74,1.37L6.35,10.55H0V31.44H3.2ZM10.71,3.22l59.56.06L78,18.09a1.6,1.6,0,0,0,1.3.85L107.61,21l.82,10-5.25,6.83-2.84.14A16,16,0,0,0,86,28.9,15.89,15.89,0,0,0,70.21,42.83h-27A15.88,15.88,0,0,0,12.74,38.4L5.59,37.19Z"/><path class="cls-1" d="M86,34.11A10.68,10.68,0,1,0,96.65,44.78,10.69,10.69,0,0,0,86,34.11Zm0,18.13a7.46,7.46,0,1,1,7.46-7.46A7.47,7.47,0,0,1,86,52.24Z"/><circle class="cls-1" cx="85.97" cy="44.78" r="3.87"/><polygon class="cls-1" points="27.78 6.83 13.8 6.82 12.27 18.35 27.78 18.35 27.78 6.83"/><polygon class="cls-1" points="48.21 6.86 31.22 6.84 31.22 18.35 48.21 18.35 48.21 6.86"/><polygon class="cls-1" points="68.09 6.88 51.66 6.86 51.66 18.35 73.38 18.35 68.09 6.88"/></g></g></svg>