<svg xmlns="http://www.w3.org/2000/svg" viewBox="0 0 109.92 59.17"><defs><style>.cls-1{fill:#ec5e33;}</style></defs><g id="Layer_2" data-name="Layer 2"><g id="Layer_3" data-name="Layer 3"><path class="cls-1" d="M24.68,58.06A10.44,10.44,0,1,0,14.24,47.62,10.45,10.45,0,0,0,24.68,58.06Zm0-17.67a7.23,7.23,0,1,1-7.23,7.23A7.24,7.24,0,0,1,24.68,40.39Z"/><path class="cls-1" d="M24.68,51.39a3.77,3.77,0,1,0-3.77-3.77A3.77,3.77,0,0,0,24.68,51.39Z"/><path class="cls-1" d="M12.54,50.82l-.21-1.77a14.18,14.18,0,0,1-.08-1.43,12.43,12.43,0,0,1,24.86,0c0,.38,0,.79,0,1.19l-.17,1.78L74,50.23V48.65A12.46,12.46,0,0,1,86.41,36.3,12.45,12.45,0,0,1,98.84,48.4l0,1.61,11-.28V23l-8.34-5.74L90.52,0H6.8L0,29.53,3.61,50.91ZM9.36,3.21h79.4L99.23,19.56l7.48,5.15V46.59l-4.78.13a15.64,15.64,0,0,0-31.07.33l-30.53.29A15.65,15.65,0,0,0,9,47.62v0l-2.71,0-3-18Z"/><path class="cls-1" d="M96.85,48.73A10.44,10.44,0,1,0,86.41,59.17,10.45,10.45,0,0,0,96.85,48.73Zm-17.66,0A7.23,7.23,0,1,1,86.41,56,7.24,7.24,0,0,1,79.19,48.73Z"/><path class="cls-1" d="M90.18,48.73a3.77,3.77,0,1,0-3.77,3.77A3.77,3.77,0,0,0,90.18,48.73Z"/><polygon class="cls-1" points="30.07 8.01 30.03 7.46 12.74 7.46 10.21 18.8 30.07 18.8 30.07 8.01"/><polygon class="cls-1" points="86.44 7.46 69.86 7.46 69.86 8.24 69.86 18.8 93.69 18.8 86.44 7.46"/><polygon class="cls-1" points="63.28 7.94 63.28 7.46 36.34 7.46 36.34 7.94 36.34 18.8 63.28 18.8 63.28 7.94"/><rect class="cls-1" x="78.74" y="23.51" width="7.35" height="3.21"/><rect class="cls-1" x="45.07" y="23.51" width="7.35" height="3.21"/></g></g></svg>